<svg width="20" height="20" viewBox="0 0 20 20" fill="none" xmlns="http://www.w3.org/2000/svg">
<path d="M13.3334 6.66669C14.6594 6.66669 15.9312 7.19347 16.8689 8.13115C17.8066 9.06884 18.3334 10.3406 18.3334 11.6667V17.5H15V11.6667C15 11.2247 14.8244 10.8007 14.5119 10.4882C14.1993 10.1756 13.7754 10 13.3334 10C12.8913 10 12.4674 10.1756 12.1548 10.4882C11.8423 10.8007 11.6667 11.2247 11.6667 11.6667V17.5H8.33335V11.6667C8.33335 10.3406 8.86014 9.06884 9.79782 8.13115C10.7355 7.19347 12.0073 6.66669 13.3334 6.66669Z" stroke="#1E1E1E" stroke-width="2" stroke-linecap="round" stroke-linejoin="round"/>
<path d="M5.00002 7.50002H1.66669V17.5H5.00002V7.50002Z" stroke="#1E1E1E" stroke-width="2" stroke-linecap="round" stroke-linejoin="round"/>
<path d="M3.33335 5.00002C4.25383 5.00002 5.00002 4.25383 5.00002 3.33335C5.00002 2.41288 4.25383 1.66669 3.33335 1.66669C2.41288 1.66669 1.66669 2.41288 1.66669 3.33335C1.66669 4.25383 2.41288 5.00002 3.33335 5.00002Z" stroke="#1E1E1E" stroke-width="2" stroke-linecap="round" stroke-linejoin="round"/>
</svg>
